<?xml version="1.0" encoding="iso-8859-1"?>
<!-- Generator: Adobe Illustrator 24.0.2, SVG Export Plug-In . SVG Version: 6.00 Build 0)  -->
<svg version="1.1" xmlns="http://www.w3.org/2000/svg" xmlns:xlink="http://www.w3.org/1999/xlink" x="0px" y="0px"
	 viewBox="0 0 1029.311 340" style="enable-background:new 0 0 1029.311 340;" xml:space="preserve">
<g id="Layer_1">
	<radialGradient id="SVGID_1_" cx="-978.4075" cy="-228.5535" r="905.8962" gradientUnits="userSpaceOnUse">
		<stop  offset="0" style="stop-color:#8B00FF"/>
		<stop  offset="1" style="stop-color:#410083"/>
	</radialGradient>
	<rect x="-1280.046" y="-371.177" style="fill:url(#SVGID_1_);" width="1024" height="1024"/>
</g>
<g id="Shadows">
	<path style="opacity:0.38;" d="M-1168.513,37.295c-19.667,0-35.609,15.943-35.609,35.609v35.609
		c0,19.667,15.943,35.609,35.609,35.609s35.609-15.943,35.609-35.609V72.904C-1132.903,53.237-1148.846,37.295-1168.513,37.295z"/>
	<path style="opacity:0.38;" d="M-1051.435-52.135c-19.667,0-35.609,15.943-35.609,35.609v142.844
		c0,19.667,15.943,35.609,35.609,35.609s35.609-15.943,35.609-35.609V-16.526C-1015.826-36.192-1031.769-52.135-1051.435-52.135z"/>
	<path style="opacity:0.38;" d="M-934.358,37.295c-19.667,0-35.609,15.943-35.609,35.609V221.48
		c-0.033,0.627-0.051,1.257-0.051,1.892c0,19.667,15.943,35.609,35.609,35.609s35.609-15.943,35.609-35.609
		c0-0.136-0.009-0.27-0.01-0.406h0.061V72.904C-898.748,53.237-914.691,37.295-934.358,37.295z"/>
	<path style="opacity:0.38;" d="M-817.28,100.067c-19.667,0-35.609,15.943-35.609,35.609v189.889
		c0,19.667,15.943,35.609,35.609,35.609s35.609-15.943,35.609-35.609V135.676C-781.671,116.01-797.613,100.067-817.28,100.067z"/>
	<path style="opacity:0.38;" d="M-700.202,196.955c-19.667,0-35.609,15.943-35.609,35.609v227.943
		c0,19.667,15.943,35.609,35.609,35.609s35.609-15.943,35.609-35.609V232.564C-664.593,212.898-680.536,196.955-700.202,196.955z"/>
	<path style="opacity:0.38;" d="M-583.125,126.318c-19.667,0-35.609,15.943-35.609,35.609v157.686
		c0,19.667,15.943,35.609,35.609,35.609c19.667,0,35.609-15.943,35.609-35.609V161.927
		C-547.515,142.261-563.458,126.318-583.125,126.318z"/>
	<path style="opacity:0.38;" d="M-466.047,72.904c-19.667,0-35.609,15.943-35.609,35.609v120.032
		c0,19.667,15.943,35.609,35.609,35.609s35.609-15.943,35.609-35.609V108.513C-430.438,88.847-446.381,72.904-466.047,72.904z"/>
	<path style="opacity:0.38;" d="M-348.969,72.904c-19.667,0-35.609,15.943-35.609,35.609v35.609
		c0,19.667,15.943,35.609,35.609,35.609s35.609-15.943,35.609-35.609v-35.609C-313.36,88.847-329.303,72.904-348.969,72.904z"/>
</g>
<g id="White_Stripes">
	<circle style="fill:#3D1177;" cx="169.684" cy="169.684" r="146.189"/>
	<path style="fill:#FCA900;" d="M-709.508,185.788c-19.667,0-35.609,15.943-35.609,35.609V449.34
		c0,19.667,15.943,35.609,35.609,35.609s35.609-15.943,35.609-35.609V221.397C-673.898,201.731-689.841,185.788-709.508,185.788z"/>
	<circle style="fill:#FFFFFF;" cx="-709.508" cy="449.34" r="35.609"/>
	<circle style="fill:#FCA900;" cx="-709.508" cy="449.34" r="24.164"/>
	<circle style="fill:#FFFFFF;" cx="-709.508" cy="449.34" r="12.723"/>
	<path style="fill:#FFFFFF;" d="M-1177.818,26.127c-19.667,0-35.609,15.943-35.609,35.609v35.609
		c0,19.667,15.943,35.609,35.609,35.609s35.609-15.943,35.609-35.609V61.737C-1142.209,42.07-1158.151,26.127-1177.818,26.127z"/>
	<path style="fill:#FFFFFF;" d="M-1060.74-63.302c-19.667,0-35.609,15.943-35.609,35.609v142.844
		c0,19.667,15.943,35.609,35.609,35.609s35.609-15.943,35.609-35.609V-27.693C-1025.131-47.359-1041.074-63.302-1060.74-63.302z"/>
	<path style="fill:#FFFFFF;" d="M-943.663,26.127c-19.667,0-35.609,15.943-35.609,35.609v148.576
		c-0.033,0.627-0.051,1.257-0.051,1.892c0,19.667,15.943,35.609,35.609,35.609s35.609-15.943,35.609-35.609
		c0-0.136-0.009-0.27-0.01-0.406h0.061V61.737C-908.053,42.07-923.996,26.127-943.663,26.127z"/>
	<path style="fill:#FFFFFF;" d="M-826.585,88.899c-19.667,0-35.609,15.943-35.609,35.609v189.889
		c0,19.667,15.943,35.609,35.609,35.609s35.609-15.943,35.609-35.609V124.509C-790.976,104.842-806.919,88.899-826.585,88.899z"/>
	<path style="fill:#FFFFFF;" d="M-592.43,115.151c-19.667,0-35.609,15.943-35.609,35.609v157.686
		c0,19.667,15.943,35.609,35.609,35.609c19.667,0,35.609-15.943,35.609-35.609V150.76
		C-556.821,131.093-572.763,115.151-592.43,115.151z"/>
	<path style="fill:#FFFFFF;" d="M-475.352,61.737c-19.667,0-35.609,15.943-35.609,35.609v120.032
		c0,19.667,15.943,35.609,35.609,35.609s35.609-15.943,35.609-35.609V97.346C-439.743,77.679-455.686,61.737-475.352,61.737z"/>
	<path style="fill:#FFFFFF;" d="M-358.275,61.737c-19.667,0-35.609,15.943-35.609,35.609v35.609
		c0,19.667,15.943,35.609,35.609,35.609s35.609-15.943,35.609-35.609V97.346C-322.665,77.679-338.608,61.737-358.275,61.737z"/>
	<path style="fill:#FCA900;" d="M186.028,172.742c-5.491,0-9.942,4.451-9.942,9.942v63.641c0,5.491,4.451,9.942,9.942,9.942
		s9.942-4.451,9.942-9.942v-63.641C195.97,177.193,191.519,172.742,186.028,172.742z"/>
	<circle style="fill:#FFFFFF;" cx="186.028" cy="246.325" r="9.942"/>
	<circle style="fill:#FCA900;" cx="186.028" cy="246.325" r="6.747"/>
	<circle style="fill:#FFFFFF;" cx="186.028" cy="246.325" r="3.552"/>
	<path style="fill:#FFFFFF;" d="M55.277,128.165c-5.491,0-9.942,4.451-9.942,9.942v9.942c0,5.491,4.451,9.942,9.942,9.942
		s9.942-4.451,9.942-9.942v-9.942C65.219,132.616,60.768,128.165,55.277,128.165z"/>
	<path style="fill:#FFFFFF;" d="M87.965,103.197c-5.491,0-9.942,4.451-9.942,9.942v39.882c0,5.491,4.451,9.942,9.942,9.942
		c5.491,0,9.942-4.451,9.942-9.942v-39.882C97.907,107.648,93.455,103.197,87.965,103.197z"/>
	<path style="fill:#FFFFFF;" d="M120.652,128.165c-5.491,0-9.942,4.451-9.942,9.942v41.482c-0.009,0.175-0.014,0.351-0.014,0.528
		c0,5.491,4.451,9.942,9.942,9.942s9.942-4.451,9.942-9.942c0-0.038-0.002-0.075-0.003-0.113h0.017v-41.897
		C130.594,132.616,126.143,128.165,120.652,128.165z"/>
	<path style="fill:#FFFFFF;" d="M153.34,145.691c-5.491,0-9.942,4.451-9.942,9.942v53.017c0,5.491,4.451,9.942,9.942,9.942
		s9.942-4.451,9.942-9.942v-53.017C163.282,150.142,158.831,145.691,153.34,145.691z"/>
	<path style="fill:#FFFFFF;" d="M218.716,153.02c-5.491,0-9.942,4.451-9.942,9.942v44.026c0,5.491,4.451,9.942,9.942,9.942
		c5.491,0,9.942-4.451,9.942-9.942v-44.026C228.658,157.472,224.207,153.02,218.716,153.02z"/>
	<path style="fill:#FFFFFF;" d="M251.404,138.107c-5.491,0-9.942,4.451-9.942,9.942v33.513c0,5.491,4.451,9.942,9.942,9.942
		c5.491,0,9.942-4.451,9.942-9.942v-33.513C261.346,142.559,256.895,138.107,251.404,138.107z"/>
	<path style="fill:#FFFFFF;" d="M284.092,138.107c-5.491,0-9.942,4.451-9.942,9.942v9.942c0,5.491,4.451,9.942,9.942,9.942
		s9.942-4.451,9.942-9.942v-9.942C294.034,142.559,289.582,138.107,284.092,138.107z"/>
	<g>
		<path style="fill:#FFFFFF;" d="M380.543,41.375h16.053l-15.223,96.175h-16.052L380.543,41.375z M386.216,41.375h27.261
			c8.764,0,15.96,1.546,21.588,4.636c5.626,3.092,9.548,7.22,11.763,12.385c2.214,5.168,2.951,10.887,2.214,17.159
			c-1.017,7.196-3.622,13.562-7.818,19.097c-4.199,5.535-9.78,9.895-16.744,13.077c-6.967,3.183-14.876,4.822-23.732,4.913h-27.399
			L386.216,41.375z M404.483,98.803c7.749,0,14.136-2.097,19.166-6.296c5.026-4.197,7.956-9.895,8.787-17.09
			c0.737-6.366-0.854-11.348-4.774-14.945c-3.923-3.599-9.341-5.397-16.26-5.397h-23.663l-7.335,43.729H404.483z"/>
		<path style="fill:#FFFFFF;" d="M461.355,65.177h15.914l-11.348,72.373h-15.913L461.355,65.177z M465.091,104.753
			c1.661-9.04,4.45-16.744,8.372-23.109c3.92-6.365,8.372-11.14,13.354-14.322c4.981-3.183,10.054-4.774,15.222-4.774
			c5.072,0,9.293,1.314,12.662,3.944c3.366,2.629,5.673,6.32,6.919,11.07c1.245,4.753,1.267,10.219,0.069,16.398h-15.775
			c1.014-5.35,0.644-9.663-1.107-12.939c-1.754-3.273-4.753-4.912-8.995-4.912c-3.69,0-7.22,1.131-10.586,3.391
			c-3.369,2.262-6.32,5.559-8.856,9.894c-2.538,4.338-4.313,9.458-5.328,15.36H465.091z"/>
		<path style="fill:#FFFFFF;" d="M538.294,65.177h16.053L543,137.55h-16.052L538.294,65.177z M541.961,52.099
			c-1.892-1.06-3.32-2.443-4.289-4.151c-0.969-1.706-1.27-3.62-0.899-5.743c0.276-2.028,1.176-3.92,2.698-5.674
			c1.522-1.751,3.391-3.159,5.604-4.221c2.214-1.06,4.519-1.591,6.919-1.591c2.491,0,4.657,0.532,6.504,1.591
			c1.845,1.062,3.229,2.469,4.151,4.221c0.921,1.753,1.245,3.646,0.969,5.674c-0.37,2.123-1.293,4.037-2.768,5.743
			c-1.477,1.708-3.3,3.092-5.466,4.151c-2.169,1.062-4.498,1.591-6.988,1.591C545.997,53.691,543.852,53.161,541.961,52.099z"/>
		<path style="fill:#FFFFFF;" d="M576.211,135.059c-5.536-3.412-9.479-8.071-11.832-13.977c-2.353-5.902-2.93-12.499-1.729-19.788
			c1.291-7.01,4.173-13.469,8.648-19.373c4.474-5.903,10.055-10.608,16.744-14.115c6.688-3.505,13.998-5.259,21.934-5.259
			c6.643,0,12.569,1.384,17.782,4.151c5.211,2.768,9.224,6.528,12.039,11.278c2.812,4.753,4.128,10.032,3.943,15.845h-14.807
			c-0.093-3.044-0.992-5.903-2.698-8.58c-1.708-2.674-4.13-4.819-7.265-6.435c-3.138-1.612-6.781-2.422-10.933-2.422
			c-5.074,0-9.804,1.155-14.184,3.46c-4.383,2.307-7.981,5.375-10.794,9.202c-2.815,3.829-4.636,7.912-5.466,12.247
			c-0.831,4.891-0.509,9.226,0.969,13.008c1.475,3.784,3.943,6.735,7.403,8.856c3.459,2.123,7.771,3.183,12.938,3.183
			c6.272,0,11.877-1.751,16.813-5.259c4.934-3.505,8.556-7.888,10.862-13.146h14.392c-1.937,6.182-5.167,11.717-9.687,16.605
			c-4.521,4.891-9.849,8.718-15.982,11.485c-6.137,2.768-12.479,4.151-19.028,4.151
			C588.434,140.179,581.747,138.471,576.211,135.059z"/>
		<path style="fill:#FFFFFF;" d="M667.542,135.197c-5.628-3.321-9.687-7.933-12.177-13.838c-2.491-5.903-3.045-12.593-1.661-20.065
			c1.198-7.103,4.082-13.606,8.649-19.512c4.566-5.903,10.192-10.586,16.882-14.046c6.688-3.46,13.814-5.189,21.38-5.189
			c8.58,0,15.613,1.847,21.104,5.535c5.487,3.691,9.224,8.511,11.209,14.461c1.982,5.95,2.374,12.201,1.176,18.751
			c-0.646,3.044-1.245,5.074-1.799,6.089h-63.517c-0.554,5.905,1.176,10.586,5.189,14.046c4.013,3.459,9.569,5.188,16.675,5.188
			c4.705,0,9.179-0.944,13.423-2.836c4.242-1.891,7.84-4.312,10.794-7.266l10.932,7.334c-4.337,4.982-9.894,8.95-16.675,11.901
			c-6.78,2.951-13.907,4.428-21.38,4.428C679.903,140.179,673.169,138.519,667.542,135.197z M719.159,95.898
			c0.46-3.321,0.021-6.526-1.315-9.618c-1.338-3.09-3.598-5.604-6.78-7.542c-3.183-1.937-7.081-2.905-11.693-2.905
			c-6.365,0-12.108,1.822-17.229,5.466c-5.12,3.646-8.88,8.511-11.278,14.6H719.159z"/>
	</g>
	<g>
		<path style="fill:#FFFFFF;" d="M422.235,237.299h-42.552l-6.986,44.14h-28.738l17.466-110.349h28.738l-7.146,44.457h42.552
			l7.146-44.457h28.738l-17.466,110.349h-28.738L422.235,237.299z"/>
		<path style="fill:#FFFFFF;" d="M472.088,198.4h29.057l-13.021,83.039h-29.056L472.088,198.4z M478.202,186.332
			c-2.913-1.588-5.081-3.731-6.51-6.431s-1.881-5.582-1.35-8.653c0.422-3.175,1.771-6.085,4.049-8.732
			c2.274-2.645,5.133-4.788,8.573-6.431c3.438-1.64,7.012-2.461,10.718-2.461c3.704,0,6.986,0.821,9.844,2.461
			c2.858,1.643,5.002,3.786,6.431,6.431c1.429,2.647,1.93,5.558,1.509,8.732c-0.531,3.071-1.933,5.954-4.208,8.653
			c-2.277,2.699-5.108,4.843-8.494,6.431c-3.389,1.588-6.935,2.382-10.639,2.382C484.419,188.714,481.112,187.92,478.202,186.332z"
			/>
		<path style="fill:#FFFFFF;" d="M521.705,280.01c-6.827-2.963-11.804-6.853-14.925-11.67c-3.123-4.815-4.366-9.976-3.731-15.48
			h27.31c0.104,3.282,1.561,6.033,4.366,8.256c2.804,2.223,7.225,3.389,13.258,3.493c4.128,0.106,7.673-0.263,10.638-1.111
			c2.962-0.846,5.265-1.931,6.907-3.255c1.64-1.322,2.564-2.725,2.778-4.208c0.211-1.48-0.106-2.724-0.953-3.73
			c-0.848-1.005-2.54-1.826-5.08-2.462c-2.541-0.635-6.247-1.163-11.114-1.587c-13.233-1.164-23.05-4.021-29.453-8.574
			c-6.405-4.55-8.971-10.69-7.7-18.418c0.846-4.867,3.307-9.261,7.383-13.179c4.073-3.914,9.42-7.011,16.036-9.288
			c6.614-2.274,14.156-3.414,22.625-3.414c8.785,0,16.275,1.298,22.467,3.891c6.192,2.595,10.797,6.167,13.813,10.717
			c3.017,4.553,4.471,9.792,4.366,15.719h-27.626c-0.107-3.175-1.563-5.661-4.367-7.462c-2.806-1.799-6.854-2.699-12.146-2.699
			c-3.176,0-5.875,0.396-8.098,1.19s-3.891,1.747-5.002,2.858s-1.722,2.302-1.825,3.572c-0.107,2.012,0.873,3.627,2.937,4.843
			c2.064,1.218,5.741,2.039,11.035,2.461c11.325,1.06,20.11,2.727,26.356,5.001c6.245,2.277,10.479,5.136,12.702,8.574
			c2.223,3.441,2.962,7.597,2.223,12.464c-0.635,4.977-3.044,9.581-7.224,13.813c-4.183,4.234-9.924,7.648-17.228,10.241
			c-7.304,2.592-15.825,3.89-25.562,3.89C536.919,284.455,528.532,282.972,521.705,280.01z"/>
		<path style="fill:#FFFFFF;" d="M634.356,219.198h-26.04l3.176-20.799h26.039l4.446-27.786h29.373l-4.445,27.786h27.468
			l-3.176,20.799h-27.468l-9.844,62.24h-29.374L634.356,219.198z"/>
		<path style="fill:#FFFFFF;" d="M708.027,278.501c-6.986-3.969-12.067-9.367-15.243-16.195c-3.175-6.827-4.076-14.314-2.699-22.466
			c1.375-8.257,4.815-15.771,10.32-22.547c5.503-6.772,12.385-12.119,20.642-16.036c8.256-3.915,17.199-5.875,26.833-5.875
			c9.844,0,18.259,1.96,25.245,5.875c6.986,3.917,12.012,9.236,15.083,15.957c3.069,6.724,3.915,14.21,2.541,22.467
			c-1.377,8.256-4.818,15.798-10.32,22.625c-5.505,6.828-12.385,12.227-20.641,16.195c-8.257,3.97-17.255,5.954-26.992,5.954
			C723.269,284.455,715.012,282.471,708.027,278.501z M748.435,259.527c3.862-2.01,7.09-4.735,9.685-8.177
			c2.593-3.438,4.208-7.276,4.843-11.511c0.847-4.34,0.66-8.229-0.556-11.671c-1.218-3.438-3.361-6.137-6.43-8.097
			c-3.072-1.958-6.883-2.938-11.433-2.938c-4.445,0-8.601,1.007-12.464,3.017c-3.865,2.012-7.093,4.738-9.685,8.177
			c-2.596,3.441-4.314,7.225-5.16,11.353c-0.742,4.234-0.477,8.098,0.794,11.591c1.27,3.493,3.465,6.246,6.589,8.256
			c3.121,2.012,6.906,3.017,11.353,3.017C740.417,262.544,744.57,261.539,748.435,259.527z"/>
		<path style="fill:#FFFFFF;" d="M809.005,198.4h28.738l-13.02,83.039h-28.738L809.005,198.4z M822.502,243.968
			c1.799-9.737,5.133-18.312,10.003-25.722c4.867-7.408,10.479-13.072,16.83-16.989c6.352-3.915,12.754-5.875,19.212-5.875
			c6.138,0,11.246,1.484,15.322,4.446c4.073,2.965,6.852,7.462,8.335,13.496c1.481,6.033,1.375,13.495-0.317,22.387h-28.738
			c1.057-5.716,0.739-10.214-0.952-13.496c-1.695-3.279-4.604-4.922-8.733-4.922c-3.493,0-6.802,1.06-9.923,3.176
			c-3.124,2.119-5.823,5.188-8.098,9.209c-2.277,4.024-3.891,8.787-4.843,14.29H822.502z"/>
		<path style="fill:#FFFFFF;" d="M903.874,274.77c-4.711-6.455-6.112-15.719-4.207-27.785l7.621-48.585h28.897l-7.146,46.045
			c-0.952,5.505-0.293,9.871,1.984,13.099c2.275,3.229,6.007,4.843,11.194,4.843c4.445,0,8.678-1.164,12.702-3.493
			c4.021-2.327,7.435-5.637,10.24-9.924c2.804-4.287,4.736-9.288,5.796-15.004l7.78,3.176c-1.695,9.209-5.081,17.386-10.162,24.53
			c-5.081,7.145-11.301,12.729-18.656,16.751c-7.358,4.021-15.059,6.033-23.102,6.033
			C916.231,284.455,908.583,281.228,903.874,274.77z M976.513,198.4h28.897l-18.735,118.446h-28.897L976.513,198.4z"/>
	</g>
</g>
<g id="Layer_4">
</g>
</svg>
